<?xml version="1.0" encoding="utf-8"?>
<!-- Generator: Adobe Illustrator 25.4.0, SVG Export Plug-In . SVG Version: 6.00 Build 0)  -->
<svg version="1.1" id="Layer_1" xmlns="http://www.w3.org/2000/svg" xmlns:xlink="http://www.w3.org/1999/xlink" x="0px" y="0px"
	 viewBox="0 0 1600 591" style="enable-background:new 0 0 1600 591;" xml:space="preserve">
<style type="text/css">
	.st0{fill-rule:evenodd;clip-rule:evenodd;fill:#E7AA91;}
</style>
<path class="st0" d="M-33.1,177.1c-0.4,20.6-7.1,36.5-20,47.7C-66.3,236.2-85,242-109.2,242c-27,0-47.5-6.9-61.4-20.7
	c-13.8-13.8-20.7-34.2-20.7-61.2c0-27,6.9-47.4,20.7-61.2c14-13.8,34.4-20.7,61.4-20.7c23.5,0,42,5.9,55.7,17.7
	c13.2,11.3,20,27.3,20.5,48.1c0,0.7,0,1.3,0,2h-48.5c0-9.2-2.5-16.5-7.4-21.8c-4.8-5.4-11.6-8.1-20.5-8.1c-10.3,0-17.9,3.2-22.8,9.7
	c-4.8,6.4-7.1,15.4-7.1,26.9v14.7c0,11.3,2.4,20.3,7.1,26.9c4.9,6.4,12.3,9.7,22.3,9.7c9.8,0,17.2-2.5,22.3-7.6
	c5.1-5.1,7.6-12.2,7.6-21.4h46.9C-33.1,175.7-33.1,176.4-33.1,177.1z M-130.6,193.2c4.4,5.8,11.2,8.9,20.7,8.9
	c9.5,0,16.3-2.4,20.9-7c4.6-4.6,7-11.1,7-20v-2h50.9v2c0,22.1-6.8,39.2-20.7,51.2c-13.7,11.9-32.9,17.7-57.4,17.7
	c-27.3,0-48.4-7-62.8-21.3l0,0c-14.3-14.3-21.3-35.3-21.3-62.6c0-27.3,7-48.3,21.3-62.6l0,0c14.4-14.3,35.5-21.3,62.8-21.3
	c23.8,0,42.9,6,57,18.2c14.2,12.1,21.2,29.4,21.2,51.7v2h-52.5v-2c0-8.8-2.3-15.6-6.8-20.5l0,0l0,0c-4.3-4.8-10.5-7.4-19-7.4
	c-9.8,0-16.7,3.1-21.2,8.9c-4.4,6-6.7,14.5-6.7,25.7v14.7C-137.3,178.5-135,187.1-130.6,193.2z M1.5,222.8L1.5,222.8
	c-15.2-14.4-22.7-35.4-22.7-62.6c0-27.2,7.5-48.1,22.7-62.4c15.4-14.4,37-21.5,64.6-21.5c27.6,0,49.3,7.1,64.6,21.5
	c15.4,14.4,22.9,35.4,22.9,62.4c0,27.1-7.6,48-22.9,62.4c-15.4,14.4-37,21.5-64.6,21.5C38.5,244,16.9,237,1.5,222.8L1.5,222.8z
	 M2.9,99.2c-14.7,13.8-22.1,34.1-22.1,60.9c0,26.8,7.4,47.2,22.1,61.2c14.9,13.8,36,20.7,63.3,20.7c27.3,0,48.4-7,63.3-20.9
	s22.3-34.3,22.3-61s-7.4-47-22.3-60.9s-36-20.9-63.3-20.9C38.8,78.2,17.7,85.2,2.9,99.2z M89.5,192.8L89.5,192.8
	c5.4-6.1,8.2-14.5,8.2-25.4v-14.7c0-10.8-2.8-19.2-8.2-25.4l0,0l0,0c-5.2-6-12.9-9.2-23.3-9.2c-10.5,0-18.1,3.2-23.3,9.2
	c-5.3,6.1-8,14.5-8,25.4v14.7c0,10.9,2.7,19.2,8,25.4c5.2,6,12.9,9.2,23.3,9.2C76.6,202,84.2,198.9,89.5,192.8L89.5,192.8z
	 M306.1,241.2v-59c0-7.1,0.2-14.3,0.7-21.7l0,0l0,0c0.3-3.1,0.5-5.9,0.8-8.6l-24.4,89.4h-42.8L216,153c0.2,2.3,0.5,4.8,0.7,7.4
	c0.6,7.4,0.9,14.7,0.9,21.8v59h-50.7V79h75.3l22.8,87.1L287.7,79h72.8v162.2H306.1z M265.5,172.3h-0.9L240.7,81h-71.8v158.2h46.7
	v-57c0-7.1-0.3-14.3-0.9-21.6c-0.6-7.5-1.3-13.7-2.1-18.6c-0.1-0.8-0.2-1.6-0.3-2.3c-0.3-2.3-0.5-4-0.6-5.4
	c-0.1-0.7-0.2-1.3-0.2-1.8c0-0.1,0-0.2,0-0.2h0.9l29.4,106.9h39.8l29.2-107.2h0.9c0,0.1,0,0.2,0,0.2c0,0.4-0.1,1-0.2,1.8
	c-0.2,1.3-0.4,3.2-0.7,5.5c-0.1,0.7-0.2,1.4-0.3,2.2c-0.6,5.1-1.2,11.3-1.8,18.9c-0.5,7.4-0.7,14.6-0.7,21.6v57h50.4V81h-69.2
	L265.5,172.3z M382.7,241.2V79h54.8v162.2H382.7z M616.5,177.1c-0.4,20.6-7.1,36.5-20,47.7c-13.2,11.5-31.9,17.2-56.1,17.2
	c-27,0-47.5-6.9-61.4-20.7c-13.8-13.8-20.7-34.2-20.7-61.2c0-27,6.9-47.4,20.7-61.2c14-13.8,34.4-20.7,61.4-20.7
	c23.5,0,42,5.9,55.7,17.7c13.2,11.3,20,27.3,20.5,48.1c0,0.7,0,1.3,0,2H568c0-9.2-2.5-16.5-7.4-21.8c-4.8-5.4-11.6-8.1-20.5-8.1
	c-10.3,0-17.9,3.2-22.8,9.7c-4.8,6.4-7.1,15.4-7.1,26.9v14.7c0,11.3,2.4,20.3,7.1,26.9c4.9,6.4,12.3,9.7,22.3,9.7
	c9.8,0,17.2-2.5,22.3-7.6s7.6-12.2,7.6-21.4h46.9C616.5,175.7,616.5,176.4,616.5,177.1z M519,193.2c4.4,5.8,11.2,8.9,20.7,8.9
	c9.5,0,16.3-2.4,20.9-7c4.6-4.6,7-11.1,7-20v-2h50.9v2c0,22.1-6.8,39.2-20.7,51.2c-13.7,11.9-32.9,17.7-57.4,17.7
	c-27.3,0-48.4-7-62.8-21.3l0,0c-14.3-14.3-21.3-35.3-21.3-62.6c0-27.3,7-48.3,21.3-62.6l0,0c14.5-14.3,35.5-21.3,62.8-21.3
	c23.8,0,42.9,6,57,18.2c14.2,12.1,21.2,29.4,21.2,51.7v2H566v-2c0-8.8-2.3-15.6-6.8-20.5l0,0l0,0c-4.3-4.8-10.5-7.4-19-7.4
	c-9.8,0-16.7,3.1-21.2,8.9c-4.4,6-6.7,14.5-6.7,25.7v14.7C512.3,178.5,514.6,187.1,519,193.2z M651.1,222.8L651.1,222.8
	c-15.2-14.4-22.7-35.4-22.7-62.6c0-27.2,7.5-48.1,22.7-62.4c15.4-14.4,37-21.5,64.6-21.5c27.6,0,49.3,7.1,64.6,21.5
	c15.4,14.4,22.9,35.4,22.9,62.4c0,27.1-7.6,48-22.9,62.4c-15.4,14.4-37,21.5-64.6,21.5C688.1,244,666.5,237,651.1,222.8L651.1,222.8
	z M652.5,99.2c-14.7,13.8-22.1,34.1-22.1,60.9c0,26.8,7.4,47.2,22.1,61.2c14.9,13.8,36,20.7,63.2,20.7c27.3,0,48.4-7,63.2-20.9
	c14.9-14,22.3-34.3,22.3-61s-7.4-47-22.3-60.9c-14.9-14-36-20.9-63.2-20.9C688.4,78.2,667.3,85.2,652.5,99.2z M739,192.8L739,192.8
	c5.4-6.1,8.2-14.5,8.2-25.4v-14.7c0-10.8-2.8-19.2-8.2-25.4l0,0l0,0c-5.2-6-12.9-9.2-23.3-9.2c-10.5,0-18.1,3.2-23.3,9.2
	c-5.3,6.1-8,14.5-8,25.4v14.7c0,10.9,2.7,19.2,8,25.4c5.2,6,12.9,9.2,23.3,9.2C726.2,202,733.8,198.9,739,192.8L739,192.8z
	 M934,241.2l-63.6-73.5v73.5h-50.7V79h47.3l63.5,74.5V79h50.7v162.2H934z M932.6,159l-66.5-78h-44.4v158.2h46.7v-76.8l66.5,76.8
	h44.4V81h-46.7V159z M1069,187.6c0-0.7,0-1.3,0-2h48.1c0,8,2.1,13.3,6.2,16.1c4.1,2.6,10.6,3.9,19.3,3.9c6.4,0,11.7-0.7,15.9-2.1
	c4.3-1.4,6.4-4.2,6.4-8.5c0-3.8-2.4-6.7-7.1-8.5c-4.6-2-12.2-4.1-22.8-6.2c-12.9-2.8-23.5-5.6-32-8.5c-8.4-3.1-15.8-8.1-22.1-14.9
	c-6.3-6.9-9.4-16.3-9.4-28.1c0-17.3,6.7-30.1,20-38.2c13.5-8.3,30.5-12.4,51.1-12.4c20.2,0,36.9,4.1,49.9,12.4
	c13,8.1,19.7,20.2,20,36.3v2.8h-47.6v-0.9c0-4.6-1.7-8.4-5.1-11.5c-3.4-3.1-8.5-4.6-15.4-4.6c-6.7,0-12,1-15.6,3
	c-3.5,2-5.3,4.4-5.3,7.4c0,4.1,2.5,7.2,7.4,9.2c4.9,2,12.8,4.1,23.7,6.2c12.7,2.6,23.2,5.4,31.3,8.3c8.3,2.8,15.5,7.4,21.6,13.8
	c6.1,6.4,9.3,15.2,9.4,26.2c0,18.7-6.4,32.6-19.1,41.6c-12.6,9-29.4,13.6-50.6,13.6c-24.7,0-43.9-4.1-57.7-12.4
	C1076.3,221.6,1069.4,207.6,1069,187.6z M1199,230c-13,9.4-30.3,13.9-51.8,13.9c-24.9,0-44.5-4.2-58.8-12.7v0
	c-14.4-8.8-21.4-24.2-21.4-45.6v-2h52.1v2c0,7.7,2,12.2,5.3,14.4c3.7,2.3,9.6,3.6,18.2,3.6c6.3,0,11.4-0.7,15.2-2l0,0l0,0
	c1.9-0.6,3.1-1.5,3.8-2.5c0.8-1,1.2-2.3,1.2-4.1c0-1.5-0.4-2.7-1.3-3.7c-0.9-1.1-2.4-2.1-4.5-2.9l0,0l0,0
	c-4.4-1.9-11.8-3.9-22.4-6.1l0,0l0,0c-12.9-2.8-23.7-5.6-32.2-8.6l0,0l0,0c-8.8-3.2-16.4-8.4-22.9-15.5c-6.7-7.4-9.9-17.2-9.9-29.4
	c0-17.9,7-31.3,21-39.9c13.9-8.5,31.3-12.7,52.1-12.7c20.5,0,37.5,4.2,51,12.7c13.6,8.5,20.6,21.3,20.9,38v0v4.8h-51.6v-2.9
	c0-4-1.5-7.3-4.4-10c-2.9-2.6-7.4-4.1-14.1-4.1c-6.6,0-11.4,1-14.7,2.7c-3.2,1.8-4.3,3.7-4.3,5.6c0,1.6,0.5,3,1.4,4.2
	c1,1.2,2.5,2.3,4.7,3.2c4.7,1.9,12.5,4,23.3,6.1l0,0v0c12.8,2.6,23.3,5.4,31.5,8.3c8.6,2.9,16.1,7.6,22.4,14.3
	c6.6,6.9,9.8,16.2,10,27.6v0v0C1218.9,206,1212.3,220.5,1199,230z M1328.3,241.2h-54.8V123.5h-52V79H1380v44.5h-51.8V241.2z
	 M1275.5,121.5v117.8h50.8V121.5h51.8V81h-154.6v40.5H1275.5z M1400.5,222.8L1400.5,222.8c-15.2-14.4-22.7-35.4-22.7-62.6
	c0-27.2,7.5-48.1,22.7-62.4c15.3-14.4,37-21.5,64.6-21.5c27.6,0,49.3,7.1,64.6,21.5c15.4,14.4,22.9,35.4,22.9,62.4
	c0,27.1-7.6,48-22.9,62.4c-15.3,14.4-37,21.5-64.6,21.5C1437.5,244,1415.8,237,1400.5,222.8L1400.5,222.8z M1488.4,192.8
	L1488.4,192.8c5.4-6.1,8.2-14.5,8.2-25.4v-14.7c0-10.8-2.8-19.2-8.2-25.4l0,0l0,0c-5.2-6-12.9-9.2-23.3-9.2
	c-10.5,0-18.1,3.2-23.3,9.2c-5.3,6.1-8,14.5-8,25.4v14.7c0,10.9,2.8,19.2,8,25.4c5.2,6,12.9,9.2,23.3,9.2
	C1475.6,202,1483.2,198.9,1488.4,192.8L1488.4,192.8z M1668.9,239.2l-28.1-57.7H1622v57.7h-50.8V81h96.8c11.3,0,21,2.2,29,6.7
	c8.1,4.3,14.2,10.2,18.2,17.7c4.1,7.4,6.2,15.4,6.2,24.2c0,9.7-2.6,18.4-7.8,26.2c-4.9,7.3-11.8,12.8-20.9,16.5
	c-0.6,0.3-1.2,0.5-1.9,0.7l35.2,66.2H1668.9z M1693.6,174l35.7,67.2h-61.6l-28.1-57.7H1624v57.7h-54.8V79h98.8
	c11.6,0,21.6,2.3,29.9,6.9c8.4,4.5,14.8,10.6,19,18.5c4.3,7.7,6.5,16,6.5,25.1c0,10-2.7,19.2-8.2,27.3
	C1710.1,164.5,1702.8,170.2,1693.6,174z M1667.6,131.6c0-3.6-1.2-6.6-3.6-8.9c-2.4-2.4-5.2-3.6-8.7-3.6H1624v25.2h31.4
	c3.5,0,6.3-1.2,8.7-3.5C1666.4,138.3,1667.6,135.2,1667.6,131.6z M1665.4,142.2c-2.8,2.8-6.1,4.1-10.1,4.1H1622v-29.2h33.4
	c4,0,7.4,1.4,10.1,4.1c2.8,2.8,4.1,6.2,4.1,10.4C1669.6,135.7,1668.2,139.3,1665.4,142.2z M1741.2,79h140.8v41.9h-86v17.9h73.6v40.3
	h-73.6v20.2h87.6v41.9h-142.5V79z M1794.1,201.3v-24.2h73.6v-36.3h-73.6v-21.9h86V81h-136.8v158.2h138.5v-37.9H1794.1z M41.3,126.1
	c5.7-6.6,14-9.9,24.8-9.9c10.9,0,19.2,3.3,24.8,9.9c5.8,6.6,8.7,15.5,8.7,26.7v14.7c0,11.2-2.9,20.1-8.7,26.7
	c-5.7,6.6-14,9.9-24.8,9.9c-10.9,0-19.2-3.3-24.8-9.9c-5.7-6.6-8.5-15.5-8.5-26.7v-14.7C32.8,141.6,35.6,132.7,41.3,126.1z
	 M384.7,239.2h50.8V81h-50.8V239.2z M690.9,126.1c5.7-6.6,14-9.9,24.8-9.9c10.9,0,19.2,3.3,24.8,9.9c5.8,6.6,8.7,15.5,8.7,26.7v14.7
	c0,11.2-2.9,20.1-8.7,26.7c-5.7,6.6-14,9.9-24.8,9.9c-10.9,0-19.2-3.3-24.8-9.9c-5.7-6.6-8.5-15.5-8.5-26.7v-14.7
	C682.4,141.6,685.2,132.7,690.9,126.1z M1528.3,99.2c-14.9-14-35.9-20.9-63.2-20.9c-27.3,0-48.4,7-63.2,20.9
	c-14.7,13.8-22.1,34.1-22.1,60.9c0,26.8,7.4,47.2,22.1,61.2c14.9,13.8,36,20.7,63.2,20.7c27.3,0,48.4-7,63.2-20.9
	c14.9-14,22.3-34.3,22.3-61S1543.2,113.1,1528.3,99.2z M1440.3,126.1c5.7-6.6,14-9.9,24.8-9.9c10.9,0,19.2,3.3,24.8,9.9
	c5.8,6.6,8.7,15.5,8.7,26.7v14.7c0,11.2-2.9,20.1-8.7,26.7c-5.7,6.6-14,9.9-24.8,9.9c-10.9,0-19.2-3.3-24.8-9.9
	c-5.7-6.6-8.5-15.5-8.5-26.7v-14.7C1431.7,141.6,1434.6,132.7,1440.3,126.1z"/>
<path class="st0" d="M-217.5,368.6c0-0.7,0-1.3,0-2h48.1c0,8,2.1,13.3,6.2,16.1c4.1,2.6,10.6,3.9,19.3,3.9c6.4,0,11.7-0.7,15.9-2.1
	c4.3-1.4,6.4-4.2,6.4-8.5c0-3.8-2.4-6.7-7.1-8.5c-4.6-2-12.2-4.1-22.8-6.2c-12.9-2.8-23.5-5.6-32-8.5c-8.4-3.1-15.8-8-22.1-14.9
	s-9.4-16.3-9.4-28.1c0-17.3,6.7-30.1,20-38.2c13.5-8.3,30.5-12.4,51.1-12.4c20.2,0,36.9,4.1,49.9,12.4c13,8.1,19.7,20.2,20,36.3v2.8
	h-47.6v-0.9c0-4.6-1.7-8.4-5.1-11.5c-3.4-3.1-8.5-4.6-15.4-4.6c-6.7,0-12,1-15.6,3c-3.5,2-5.3,4.4-5.3,7.4c0,4.1,2.5,7.2,7.4,9.2
	c4.9,2,12.8,4.1,23.7,6.2c12.7,2.6,23.2,5.4,31.3,8.3c8.3,2.8,15.5,7.4,21.6,13.8c6.1,6.4,9.3,15.2,9.4,26.2
	c0,18.7-6.4,32.6-19.1,41.6c-12.6,9-29.4,13.6-50.6,13.6c-24.7,0-43.9-4.1-57.7-12.4C-210.3,402.6-217.1,388.6-217.5,368.6z
	 M-87.6,411c-13,9.4-30.3,13.9-51.8,13.9c-24.9,0-44.5-4.2-58.8-12.7l0,0c-14.4-8.8-21.4-24.2-21.4-45.6v-2h52.1v2
	c0,7.7,2,12.2,5.3,14.4c3.7,2.3,9.6,3.6,18.2,3.6c6.3,0,11.4-0.7,15.2-2l0,0l0,0c1.9-0.6,3.1-1.5,3.8-2.5c0.8-1,1.2-2.3,1.2-4.1
	c0-1.5-0.4-2.7-1.3-3.7c-0.9-1.1-2.4-2.1-4.5-2.9l0,0l0,0c-4.4-1.9-11.8-3.9-22.4-6.1l0,0l0,0c-12.9-2.8-23.7-5.6-32.2-8.6l0,0l0,0
	c-8.8-3.2-16.4-8.4-22.9-15.5c-6.7-7.4-10-17.2-10-29.4c0-17.9,7-31.4,21-39.9c13.9-8.5,31.3-12.7,52.1-12.7
	c20.5,0,37.5,4.2,51,12.7c13.6,8.5,20.6,21.3,20.9,38l0,0v4.8h-51.6v-2.9c0-4-1.5-7.3-4.4-10c-2.9-2.6-7.4-4.1-14.1-4.1
	c-6.6,0-11.4,1-14.7,2.7c-3.2,1.8-4.3,3.7-4.3,5.6c0,1.6,0.5,3,1.4,4.2c1,1.2,2.5,2.3,4.7,3.2c4.7,1.9,12.5,4,23.3,6.1l0,0l0,0
	c12.8,2.6,23.3,5.4,31.5,8.3c8.6,2.9,16.1,7.6,22.4,14.3c6.6,6.9,9.8,16.2,10,27.6l0,0v0C-67.7,387-74.2,401.5-87.6,411z
	 M41.7,422.2h-54.8V304.5h-52V260H93.5v44.5H41.7V422.2z M-11.1,302.5v117.8h50.8V302.5h51.7V262H-63.1v40.5H-11.1z M113.9,403.8
	L113.9,403.8c-15.2-14.4-22.7-35.4-22.7-62.6c0-27.2,7.5-48.1,22.7-62.4c15.4-14.4,37-21.5,64.6-21.5s49.3,7.1,64.6,21.5
	c15.4,14.4,22.9,35.4,22.9,62.4c0,27.1-7.6,48-22.9,62.4c-15.4,14.4-37,21.5-64.6,21.5C150.9,425,129.3,418,113.9,403.8L113.9,403.8
	z M201.9,373.8L201.9,373.8c5.4-6.1,8.2-14.5,8.2-25.4v-14.7c0-10.8-2.8-19.2-8.2-25.4l0,0l0,0c-5.2-6-12.9-9.2-23.3-9.2
	s-18.1,3.2-23.3,9.2c-5.3,6.1-8,14.5-8,25.4v14.7c0,10.9,2.7,19.2,8,25.4c5.2,6,12.9,9.2,23.3,9.2S196.7,379.9,201.9,373.8
	L201.9,373.8z M382.3,420.2l-28.1-57.7h-18.9v57.7h-50.8V262h96.8c11.3,0,21,2.2,29,6.7c8.1,4.3,14.2,10.2,18.2,17.7
	c4.1,7.4,6.2,15.4,6.2,24.2c0,9.7-2.6,18.4-7.8,26.2c-4.9,7.3-11.8,12.8-20.9,16.5c-0.6,0.3-1.2,0.5-1.9,0.7l35.2,66.2H382.3z
	 M407,355l35.7,67.2h-61.6L353,364.5h-15.6v57.7h-54.8V260h98.8c11.6,0,21.6,2.3,29.9,6.9c8.4,4.5,14.8,10.6,19,18.5
	c4.3,7.7,6.5,16,6.5,25.1c0,10-2.7,19.2-8.2,27.3C423.5,345.5,416.3,351.2,407,355z M381,312.6c0-3.6-1.2-6.6-3.6-8.9
	c-2.4-2.4-5.2-3.6-8.7-3.6h-31.4v25.2h31.4c3.5,0,6.3-1.2,8.7-3.5C379.8,319.3,381,316.2,381,312.6z M378.9,323.2
	c-2.8,2.8-6.1,4.1-10.1,4.1h-33.4v-29.2h33.4c4,0,7.4,1.4,10.1,4.1c2.8,2.8,4.1,6.2,4.1,10.4C383,316.7,381.6,320.3,378.9,323.2z
	 M454.7,260h140.9v42h-86v17.9h73.6v40.3h-73.6v20.1h87.6v42H454.7V260z M507.5,382.3v-24.1h73.6v-36.3h-73.6v-21.9h86v-38H456.7
	v158.2h138.5v-38H507.5z M241.8,280.2c-14.9-14-36-20.9-63.2-20.9c-27.3,0-48.4,7-63.2,20.9c-14.7,13.8-22.1,34.1-22.1,61
	s7.4,47.2,22.1,61.2c14.9,13.8,36,20.7,63.2,20.7c27.3,0,48.4-7,63.2-20.9c14.9-14,22.3-34.3,22.3-60.9S256.7,294.1,241.8,280.2z
	 M153.7,307.1c5.7-6.6,14-9.9,24.8-9.9c10.9,0,19.2,3.3,24.8,9.9c5.8,6.6,8.7,15.5,8.7,26.7v14.7c0,11.2-2.9,20.1-8.7,26.7
	c-5.7,6.6-14,9.9-24.8,9.9c-10.9,0-19.2-3.3-24.8-9.9c-5.7-6.6-8.5-15.5-8.5-26.7v-14.7C145.2,322.6,148,313.7,153.7,307.1z"/>
<path class="st0" d="M-162.2,540.1c-0.4,20.6-7.1,36.5-20,47.7c-13.2,11.5-31.9,17.2-56.1,17.2c-27,0-47.5-6.9-61.4-20.7
	c-13.8-13.8-20.7-34.2-20.7-61.2c0-27,6.9-47.4,20.7-61.2c14-13.8,34.4-20.7,61.4-20.7c23.5,0,42,5.9,55.7,17.7
	c13.2,11.3,20,27.3,20.4,48.1c0,0.7,0,1.3,0,2h-48.5c0-9.2-2.5-16.5-7.4-21.9c-4.8-5.4-11.6-8-20.5-8c-10.3,0-17.9,3.2-22.8,9.7
	c-4.8,6.4-7.1,15.4-7.1,26.9v14.7c0,11.3,2.4,20.3,7.1,26.9c4.9,6.4,12.3,9.7,22.3,9.7c9.8,0,17.3-2.5,22.3-7.6s7.6-12.2,7.6-21.4
	h46.9C-162.2,538.7-162.2,539.4-162.2,540.1z M-259.7,556.2c4.4,5.8,11.2,8.9,20.7,8.9c9.5,0,16.3-2.4,20.9-7c4.6-4.6,7-11.1,7-20
	v-2h50.9v2c0,22.1-6.8,39.2-20.7,51.2c0,0,0,0,0,0 M-259.7,556.2c-4.4-6.1-6.7-14.6-6.7-25.7v-14.7c0-11.2,2.3-19.7,6.7-25.7
	c4.4-5.8,11.3-8.9,21.2-8.9c8.5,0,14.7,2.5,19,7.4l0,0l0,0c4.5,4.9,6.8,11.7,6.8,20.5v2h52.5v-2c0-22.2-7-39.5-21.2-51.7
	c-14.1-12.2-33.2-18.2-57-18.2c-27.3,0-48.4,7-62.8,21.3l0,0c-14.3,14.3-21.3,35.3-21.3,62.6c0,27.3,7,48.3,21.3,62.6l0,0
	c14.5,14.3,35.5,21.3,62.8,21.3c24.5,0,43.8-5.8,57.4-17.7 M-127.6,585.8L-127.6,585.8c-15.2-14.4-22.7-35.4-22.7-62.6
	c0-27.2,7.5-48.1,22.7-62.4c15.4-14.4,37-21.5,64.6-21.5c27.6,0,49.3,7.1,64.6,21.5c15.4,14.4,22.9,35.4,22.9,62.4
	c0,27.1-7.6,48-22.9,62.4C-13.7,599.9-35.3,607-63,607C-90.6,607-112.2,600-127.6,585.8L-127.6,585.8z M-39.6,555.8L-39.6,555.8
	c5.4-6.1,8.2-14.5,8.2-25.4v-14.7c0-10.8-2.8-19.2-8.2-25.4l0,0l0,0c-5.2-6-12.9-9.2-23.3-9.2c-10.5,0-18.1,3.1-23.3,9.2
	c-5.3,6.1-8,14.5-8,25.4v14.7c0,10.9,2.7,19.2,8,25.4c5.2,6,12.9,9.2,23.3,9.2C-52.5,565-44.8,561.9-39.6,555.8L-39.6,555.8z
	 M177,604.2v-59c0-7.1,0.2-14.3,0.7-21.7l0,0l0,0c0.2-3.1,0.5-5.9,0.8-8.6l-24.4,89.4h-42.8L86.9,516c0.2,2.3,0.5,4.8,0.7,7.4
	c0.6,7.4,0.9,14.7,0.9,21.8v59H37.8V442h75.3l22.8,87.1l22.6-87.1h72.8v162.2H177z M136.4,535.3h-0.9L111.6,444H39.8v158.2h46.7v-57
	c0-7.1-0.3-14.3-0.9-21.6c-0.6-7.5-1.3-13.7-2.1-18.6c-0.1-0.8-0.2-1.6-0.3-2.3c-0.3-2.3-0.5-4-0.6-5.4c-0.1-0.7-0.2-1.3-0.2-1.8
	c0-0.1,0-0.2,0-0.2h0.9l29.4,106.9h39.8l29.2-107.2h0.9c0,0.1,0,0.2,0,0.2c-0.1,0.4-0.1,1-0.2,1.8c-0.2,1.3-0.4,3.2-0.7,5.5
	c-0.1,0.7-0.2,1.4-0.3,2.2c-0.6,5.1-1.2,11.3-1.8,18.9c-0.5,7.4-0.7,14.6-0.7,21.6v57h50.4V444h-69.2L136.4,535.3z M253.7,604.2V442
	h54.8v162.2H253.7z M487.4,540.1c-0.4,20.6-7.1,36.5-20,47.7c-13.2,11.5-31.9,17.2-56.1,17.2c-27,0-47.5-6.9-61.4-20.7
	c-13.8-13.8-20.7-34.2-20.7-61.2c0-27,6.9-47.4,20.7-61.2c14-13.8,34.4-20.7,61.4-20.7c23.5,0,42,5.9,55.7,17.7
	c13.2,11.3,20,27.3,20.5,48.1c0,0.7,0,1.3,0,2h-48.5c0-9.2-2.5-16.5-7.4-21.9c-4.8-5.4-11.6-8-20.5-8c-10.3,0-17.9,3.2-22.8,9.7
	c-4.8,6.4-7.1,15.4-7.1,26.9v14.7c0,11.3,2.4,20.3,7.1,26.9c4.9,6.4,12.3,9.7,22.3,9.7c9.8,0,17.2-2.5,22.3-7.6s7.6-12.2,7.6-21.4
	h46.9C487.4,538.7,487.4,539.4,487.4,540.1z M389.9,556.2c4.4,5.8,11.2,8.9,20.7,8.9c9.5,0,16.3-2.4,20.9-7c4.6-4.6,7-11.1,7-20v-2
	h50.9v2c0,22.1-6.8,39.2-20.7,51.2c-13.7,11.9-32.9,17.7-57.4,17.7c-27.3,0-48.4-7-62.8-21.3l0,0c-14.3-14.3-21.3-35.3-21.3-62.6
	c0-27.3,7-48.3,21.3-62.6l0,0c14.5-14.3,35.5-21.3,62.8-21.3c23.8,0,42.9,6,57,18.2c14.2,12.1,21.2,29.4,21.2,51.7v2h-52.5v-2
	c0-8.8-2.3-15.6-6.8-20.5l0,0l0,0c-4.3-4.8-10.5-7.4-19-7.4c-9.8,0-16.7,3.1-21.2,8.9c-4.4,6-6.7,14.5-6.7,25.7v14.7
	C383.2,541.5,385.5,550.1,389.9,556.2z M522,585.8L522,585.8c-15.2-14.4-22.7-35.4-22.7-62.6c0-27.2,7.5-48.1,22.7-62.4
	c15.4-14.4,37-21.5,64.6-21.5c27.6,0,49.3,7.1,64.6,21.5c15.4,14.4,22.9,35.4,22.9,62.4c0,27.1-7.6,48-22.9,62.4
	c-15.4,14.4-37,21.5-64.6,21.5C559,607,537.4,600,522,585.8L522,585.8z M610,555.8L610,555.8c5.4-6.1,8.2-14.5,8.2-25.4v-14.7
	c0-10.8-2.8-19.2-8.2-25.4l0,0l0,0c-5.2-6-12.9-9.2-23.3-9.2c-10.5,0-18.1,3.1-23.3,9.2c-5.3,6.1-8,14.5-8,25.4v14.7
	c0,10.9,2.7,19.2,8,25.4c5.2,6,12.9,9.2,23.3,9.2C597.1,565,604.8,561.9,610,555.8L610,555.8z M804.9,604.2l-63.6-73.5v73.5h-50.7
	V442H738l63.5,74.5V442h50.7v162.2H804.9z M803.5,522L737,444h-44.4v158.2h46.7v-76.8l66.5,76.8h44.4V444h-46.7V522z M0.3,462.2
	c-14.9-14-36-20.9-63.3-20.9c-27.3,0-48.4,7-63.3,20.9c-14.7,13.8-22.1,34.1-22.1,60.9c0,26.8,7.4,47.2,22.1,61.2
	c14.9,13.8,36,20.7,63.3,20.7c27.3,0,48.4-7,63.3-20.9c14.9-14,22.3-34.3,22.3-61C22.6,496.4,15.2,476.1,0.3,462.2z M-87.8,489.1
	c5.7-6.6,14-9.9,24.8-9.9c10.9,0,19.2,3.3,24.8,9.9c5.8,6.6,8.7,15.5,8.7,26.7v14.7c0,11.2-2.9,20.1-8.7,26.7
	c-5.7,6.6-14,9.9-24.8,9.9c-10.9,0-19.2-3.3-24.8-9.9c-5.7-6.6-8.5-15.5-8.5-26.7v-14.7C-96.3,504.6-93.5,495.7-87.8,489.1z
	 M255.7,602.2h50.8V444h-50.8V602.2z M649.9,462.2c-14.9-14-36-20.9-63.2-20.9c-27.3,0-48.4,7-63.3,20.9
	c-14.7,13.8-22.1,34.1-22.1,60.9c0,26.8,7.4,47.2,22.1,61.2c14.9,13.8,36,20.7,63.3,20.7c27.3,0,48.4-7,63.2-20.9
	c14.9-14,22.3-34.3,22.3-61C672.2,496.4,664.8,476.1,649.9,462.2z M561.8,489.1c5.7-6.6,14-9.9,24.8-9.9c10.9,0,19.2,3.3,24.8,9.9
	c5.8,6.6,8.7,15.5,8.7,26.7v14.7c0,11.2-2.9,20.1-8.7,26.7c-5.7,6.6-14,9.9-24.8,9.9c-10.9,0-19.2-3.3-24.8-9.9
	c-5.7-6.6-8.5-15.5-8.5-26.7v-14.7C553.3,504.6,556.1,495.7,561.8,489.1z M940.3,550.6c0-0.7,0-1.3,0-2h48.1c0,8,2.1,13.3,6.2,16.1
	c4.1,2.6,10.6,3.9,19.3,3.9c6.4,0,11.7-0.7,15.9-2.1c4.3-1.4,6.4-4.2,6.4-8.5c0-3.8-2.4-6.7-7.1-8.5c-4.6-2-12.2-4.1-22.8-6.2
	c-12.9-2.8-23.5-5.6-32-8.5c-8.4-3.1-15.8-8-22.1-15c-6.3-6.9-9.4-16.3-9.4-28.1c0-17.3,6.7-30.1,20-38.2
	c13.5-8.3,30.5-12.4,51.1-12.4c20.2,0,36.9,4.1,49.9,12.4c13,8.1,19.7,20.2,20,36.3v2.8h-47.6v-0.9c0-4.6-1.7-8.4-5.1-11.5
	c-3.4-3.1-8.5-4.6-15.4-4.6c-6.7,0-12,1-15.6,3c-3.5,2-5.3,4.4-5.3,7.4c0,4.1,2.5,7.2,7.4,9.2c4.9,2,12.8,4.1,23.7,6.2
	c12.7,2.6,23.2,5.4,31.3,8.3c8.3,2.8,15.5,7.4,21.6,13.8c6.1,6.4,9.3,15.2,9.4,26.2c0,18.7-6.4,32.6-19.1,41.6
	c-12.6,9-29.4,13.6-50.6,13.6c-24.7,0-43.9-4.1-57.7-12.4C947.5,584.6,940.7,570.6,940.3,550.6z M1070.2,593
	c-13,9.4-30.3,13.9-51.8,13.9c-24.9,0-44.5-4.2-58.8-12.7v0c-14.4-8.8-21.4-24.2-21.4-45.6v-2h52.1v2c0,7.7,2,12.2,5.3,14.4
	c3.7,2.3,9.6,3.6,18.2,3.6c6.3,0,11.4-0.7,15.2-2l0,0l0,0c1.9-0.6,3.1-1.5,3.8-2.5c0.8-1,1.2-2.3,1.2-4.1c0-1.5-0.4-2.7-1.3-3.7
	c-0.9-1.1-2.4-2.1-4.5-2.9l0,0l0,0c-4.4-1.9-11.8-3.9-22.4-6.1l0,0l0,0c-12.9-2.8-23.7-5.6-32.2-8.6l0,0l0,0
	c-8.8-3.2-16.4-8.4-22.9-15.5c-6.7-7.4-9.9-17.2-9.9-29.4c0-17.9,7-31.3,21-39.9c13.9-8.5,31.3-12.7,52.1-12.7
	c20.5,0,37.5,4.2,51,12.7c13.6,8.5,20.6,21.3,20.9,38v0v4.8h-51.6v-2.9c0-4-1.5-7.3-4.4-10c-2.9-2.6-7.4-4.1-14.1-4.1
	c-6.6,0-11.4,1-14.7,2.7c-3.2,1.8-4.3,3.7-4.3,5.6c0,1.6,0.5,3,1.4,4.2c1,1.2,2.5,2.3,4.7,3.2c4.7,1.9,12.5,4,23.3,6.1l0,0v0
	c12.8,2.6,23.3,5.4,31.5,8.3c8.6,2.9,16.1,7.6,22.4,14.3c6.6,6.9,9.8,16.2,10,27.6v0v0C1090.1,569,1083.6,583.5,1070.2,593z
	 M1199.5,604.2h-54.8V486.5h-52V442h158.6v44.5h-51.8V604.2z M1146.7,484.5v117.8h50.8V484.5h51.8V444h-154.6v40.5H1146.7z
	 M1271.7,585.8L1271.7,585.8c-15.2-14.4-22.7-35.4-22.7-62.6c0-27.2,7.5-48.1,22.7-62.4c15.3-14.4,37-21.5,64.6-21.5
	c27.6,0,49.3,7.1,64.6,21.5c15.4,14.4,22.9,35.4,22.9,62.4c0,27.1-7.6,48-22.9,62.4c-15.3,14.4-37,21.5-64.6,21.5
	C1308.7,607,1287.1,600,1271.7,585.8L1271.7,585.8z M1359.7,555.8L1359.7,555.8c5.4-6.1,8.2-14.5,8.2-25.4v-14.7
	c0-10.8-2.8-19.2-8.2-25.4l0,0l0,0c-5.2-6-12.9-9.2-23.3-9.2c-10.5,0-18.1,3.2-23.3,9.2c-5.3,6.1-8,14.5-8,25.4v14.7
	c0,10.9,2.8,19.2,8,25.4c5.2,6,12.9,9.2,23.3,9.2C1346.8,565,1354.5,561.9,1359.7,555.8L1359.7,555.8z M1540.1,602.2l-28.1-57.7
	h-18.9v57.7h-50.8V444h96.8c11.3,0,21,2.2,29,6.7c8.1,4.3,14.2,10.2,18.2,17.7c4.1,7.4,6.2,15.4,6.2,24.1c0,9.7-2.6,18.4-7.8,26.2
	c-4.9,7.3-11.8,12.8-20.9,16.5c-0.6,0.3-1.2,0.5-1.9,0.7l35.2,66.2H1540.1z M1564.8,537l35.7,67.2h-61.6l-28.1-57.7h-15.6v57.7
	h-54.8V442h98.8c11.6,0,21.6,2.3,29.9,6.9c8.4,4.5,14.8,10.6,19,18.5c4.3,7.7,6.5,16,6.5,25.1c0,10-2.7,19.2-8.2,27.3
	C1581.3,527.5,1574.1,533.2,1564.8,537z M1538.8,494.6c0-3.6-1.2-6.6-3.6-8.9c-2.4-2.4-5.2-3.6-8.7-3.6h-31.4v25.2h31.4
	c3.5,0,6.3-1.2,8.7-3.5C1537.6,501.3,1538.8,498.2,1538.8,494.6z M1536.7,505.2c-2.8,2.8-6.1,4.1-10.1,4.1h-33.4v-29.2h33.4
	c4,0,7.4,1.4,10.1,4.1c2.8,2.8,4.1,6.2,4.1,10.4C1540.8,498.7,1539.4,502.3,1536.7,505.2z M1612.5,442h140.8v41.9h-86v17.9h73.6
	v40.3h-73.6v20.2h87.6v42h-142.5V442z M1665.3,564.3v-24.2h73.6v-36.3h-73.6v-21.9h86V444h-136.8v158.2H1753v-38H1665.3z
	 M1399.6,462.2c-14.9-14-35.9-20.9-63.2-20.9c-27.3,0-48.4,7-63.2,20.9c-14.7,13.8-22.1,34.1-22.1,60.9c0,26.8,7.4,47.2,22.1,61.2
	c14.9,13.8,36,20.7,63.2,20.7c27.3,0,48.4-7,63.2-20.9c14.9-14,22.3-34.3,22.3-61C1421.9,496.4,1414.5,476.1,1399.6,462.2z
	 M1311.5,489.1c5.7-6.6,14-9.9,24.8-9.9c10.9,0,19.2,3.3,24.8,9.9c5.8,6.6,8.7,15.5,8.7,26.7v14.7c0,11.2-2.9,20.1-8.7,26.7
	c-5.7,6.6-14,9.9-24.8,9.9c-10.9,0-19.2-3.3-24.8-9.9c-5.7-6.6-8.5-15.5-8.5-26.7v-14.7C1303,504.6,1305.8,495.7,1311.5,489.1z"/>
<path class="st0" d="M793.4,358.1c-0.4,20.6-7.1,36.5-20,47.7c-13.2,11.5-31.9,17.2-56.1,17.2c-27,0-47.5-6.9-61.4-20.7
	c-13.8-13.8-20.7-34.2-20.7-61.2s6.9-47.4,20.7-61.2c14-13.8,34.4-20.7,61.4-20.7c23.5,0,42,5.9,55.7,17.7
	c13.2,11.3,20,27.3,20.5,48.1c0,0.7,0,1.3,0,2h-48.5c0-9.2-2.5-16.5-7.4-21.9c-4.8-5.4-11.6-8.1-20.5-8.1c-10.3,0-17.9,3.2-22.8,9.7
	c-4.8,6.4-7.1,15.4-7.1,26.9v14.7c0,11.3,2.4,20.3,7.1,26.9c4.9,6.4,12.3,9.7,22.3,9.7c9.8,0,17.2-2.5,22.3-7.6s7.6-12.2,7.6-21.4
	h46.9C793.4,356.7,793.4,357.4,793.4,358.1z M695.9,374.2c4.4,5.8,11.2,8.9,20.7,8.9c9.5,0,16.3-2.4,20.9-7c4.6-4.6,7-11.1,7-20v-2
	h50.9v2c0,22.1-6.8,39.2-20.7,51.2C761,419.2,741.8,425,717.3,425c-27.3,0-48.4-7-62.8-21.3l0,0c-14.3-14.3-21.3-35.3-21.3-62.6
	s7-48.3,21.3-62.6l0,0c14.5-14.3,35.5-21.3,62.8-21.3c23.8,0,42.9,6,57,18.2c14.2,12.1,21.2,29.4,21.2,51.7v2h-52.5v-2
	c0-8.8-2.3-15.6-6.8-20.5l0,0l0,0c-4.3-4.8-10.5-7.4-19-7.4c-9.8,0-16.7,3.1-21.2,8.9c-4.4,6-6.7,14.5-6.7,25.7v14.7
	C689.2,359.5,691.5,368.1,695.9,374.2z M828,403.8L828,403.8c-15.2-14.4-22.7-35.4-22.7-62.6c0-27.2,7.5-48.1,22.7-62.4
	c15.4-14.4,37-21.5,64.6-21.5s49.3,7.1,64.6,21.5c15.4,14.4,22.9,35.4,22.9,62.4c0,27.1-7.6,48-22.9,62.4
	c-15.4,14.4-37,21.5-64.6,21.5C865,425,843.4,418,828,403.8L828,403.8z M829.4,280.2c-14.7,13.8-22.1,34.1-22.1,61
	s7.4,47.2,22.1,61.2c14.9,13.8,36,20.7,63.2,20.7c27.3,0,48.4-7,63.2-20.9c14.9-14,22.3-34.3,22.3-60.9s-7.4-47-22.3-61
	s-36-20.9-63.2-20.9C865.3,259.2,844.2,266.2,829.4,280.2z M916,373.8L916,373.8c5.4-6.1,8.2-14.5,8.2-25.4v-14.7
	c0-10.8-2.8-19.2-8.2-25.4l0,0l0,0c-5.2-6-12.9-9.2-23.3-9.2s-18.1,3.2-23.3,9.2c-5.3,6.1-8,14.5-8,25.4v14.7
	c0,10.9,2.7,19.2,8,25.4c5.2,6,12.9,9.2,23.3,9.2S910.7,379.9,916,373.8L916,373.8z M1132.6,422.2v-59c0-7.1,0.2-14.3,0.7-21.7l0,0
	v0c0.2-3.1,0.5-5.9,0.8-8.6l-24.4,89.4h-42.8l-24.3-88.3c0.2,2.3,0.5,4.8,0.7,7.4c0.6,7.4,0.9,14.7,0.9,21.8v59h-50.7V260h75.3
	l22.8,87.1l22.6-87.1h72.8v162.2H1132.6z M1092,353.3h-0.9l-23.9-91.3h-71.8v158.2h46.7v-57c0-7.1-0.3-14.3-0.9-21.6
	c-0.6-7.5-1.3-13.7-2.1-18.6c-0.1-0.8-0.2-1.6-0.3-2.3c-0.3-2.3-0.5-4-0.6-5.4c-0.1-0.7-0.1-1.3-0.2-1.8c0-0.1,0-0.2,0-0.2h0.9
	l29.4,107h39.8l29.2-107.2h0.9c0,0.1,0,0.2,0,0.2c0,0.4-0.1,1-0.2,1.8c-0.2,1.3-0.4,3.2-0.7,5.5c-0.1,0.7-0.2,1.4-0.3,2.2
	c-0.6,5.1-1.2,11.3-1.8,18.9c-0.5,7.4-0.7,14.6-0.7,21.6v57h50.4V262h-69.2L1092,353.3z M1209.2,422.2V260h54.8v162.2H1209.2z
	 M1443,358.1c-0.4,20.6-7.1,36.5-20,47.7c-13.2,11.5-31.9,17.2-56.1,17.2c-27,0-47.4-6.9-61.4-20.7c-13.8-13.8-20.7-34.2-20.7-61.2
	s6.9-47.4,20.7-61.2c14-13.8,34.4-20.7,61.4-20.7c23.5,0,42,5.9,55.7,17.7c13.2,11.3,20,27.3,20.4,48.1c0,0.7,0,1.3,0,2h-48.5
	c0-9.2-2.4-16.5-7.4-21.9c-4.8-5.4-11.6-8.1-20.5-8.1c-10.3,0-17.9,3.2-22.8,9.7c-4.8,6.4-7.1,15.4-7.1,26.9v14.7
	c0,11.3,2.4,20.3,7.1,26.9c4.9,6.4,12.3,9.7,22.3,9.7c9.8,0,17.2-2.5,22.3-7.6c5.1-5.1,7.6-12.2,7.6-21.4h46.9
	C1443,356.7,1443,357.4,1443,358.1z M1345.5,374.2c4.4,5.8,11.2,8.9,20.7,8.9s16.3-2.4,20.9-7c4.6-4.6,7-11.1,7-20v-2h50.9v2
	c0,22.1-6.8,39.2-20.7,51.2c-13.7,11.9-32.9,17.7-57.4,17.7c-27.3,0-48.4-7-62.8-21.3l0,0c-14.3-14.3-21.3-35.3-21.3-62.6
	s7-48.3,21.3-62.6l0,0c14.4-14.3,35.5-21.3,62.8-21.3c23.8,0,42.9,6,57,18.2c14.2,12.1,21.2,29.4,21.2,51.7v2h-52.5v-2
	c0-8.8-2.3-15.6-6.8-20.5l0,0l0,0c-4.3-4.8-10.5-7.4-19-7.4c-9.8,0-16.7,3.1-21.2,8.9c-4.4,6-6.7,14.5-6.7,25.7v14.7
	C1338.7,359.5,1341.1,368.1,1345.5,374.2z M1477.6,403.8L1477.6,403.8c-15.2-14.4-22.7-35.4-22.7-62.6c0-27.2,7.5-48.1,22.7-62.4
	c15.4-14.4,37-21.5,64.6-21.5c27.6,0,49.3,7.1,64.6,21.5c15.4,14.4,22.9,35.4,22.9,62.4c0,27.1-7.6,48-22.9,62.4
	c-15.4,14.4-37,21.5-64.6,21.5S1493,418,1477.6,403.8L1477.6,403.8z M1479,280.2c-14.7,13.8-22.1,34.1-22.1,61s7.4,47.2,22.1,61.2
	c14.9,13.8,36,20.7,63.2,20.7c27.3,0,48.4-7,63.2-20.9c14.9-14,22.3-34.3,22.3-60.9s-7.4-47-22.3-61c-14.9-14-36-20.9-63.2-20.9
	C1514.9,259.2,1493.8,266.2,1479,280.2z M1565.5,373.8L1565.5,373.8c5.4-6.1,8.2-14.5,8.2-25.4v-14.7c0-10.8-2.8-19.2-8.2-25.4l0,0
	l0,0c-5.2-6-12.9-9.2-23.3-9.2c-10.5,0-18.1,3.2-23.3,9.2c-5.3,6.1-8,14.5-8,25.4v14.7c0,10.9,2.7,19.2,8,25.4
	c5.2,6,12.9,9.2,23.3,9.2C1552.7,383,1560.3,379.9,1565.5,373.8L1565.5,373.8z M1760.5,422.2l-63.5-73.5v73.5h-50.7V260h47.3
	l63.5,74.5V260h50.7v162.2H1760.5z M1759.1,340l-66.5-78h-44.4v158.2h46.7v-76.8l66.5,76.8h44.4V262h-46.7V340z M867.8,307.1
	c5.7-6.6,14-9.9,24.8-9.9s19.2,3.3,24.8,9.9c5.8,6.6,8.7,15.5,8.7,26.7v14.7c0,11.2-2.9,20.1-8.7,26.7c-5.7,6.6-14,9.9-24.8,9.9
	s-19.2-3.3-24.8-9.9c-5.7-6.6-8.5-15.5-8.5-26.7v-14.7C859.3,322.6,862.1,313.7,867.8,307.1z M1211.2,420.2h50.8V262h-50.8V420.2z
	 M1517.4,307.1c5.7-6.6,14-9.9,24.8-9.9c10.9,0,19.2,3.3,24.8,9.9c5.8,6.6,8.7,15.5,8.7,26.7v14.7c0,11.2-2.9,20.1-8.7,26.7
	c-5.7,6.6-14,9.9-24.8,9.9c-10.9,0-19.2-3.3-24.8-9.9c-5.7-6.6-8.5-15.5-8.5-26.7v-14.7C1508.9,322.6,1511.7,313.7,1517.4,307.1z"/>
</svg>
